<svg width="99" height="100" viewBox="0 0 99 100" fill="none" xmlns="http://www.w3.org/2000/svg">
<path d="M97.5 49.7151C97.5 76.3457 76.0076 97.9302 49.5 97.9302C22.9924 97.9302 1.5 76.3457 1.5 49.7151C1.5 23.0846 22.9924 1.5 49.5 1.5C76.0076 1.5 97.5 23.0846 97.5 49.7151Z" stroke="white"/>
<path d="M48.6489 1C62.7484 1.94961 90.9962 13.0221 91.1918 49.7151C91.3874 86.4081 62.9114 97.8605 48.6489 99" stroke="white"/>
<path d="M49.2163 1C61.0598 1.94961 84.788 13.0221 84.9523 49.7151C85.1166 86.4081 61.1968 97.8605 49.2163 99" stroke="white"/>
<path d="M49.2163 1C58.8039 1.94961 78.0124 13.0221 78.1455 49.7151C78.2785 86.4081 58.9148 97.8605 49.2163 99" stroke="white"/>
<path d="M49.2163 1C55.2321 1.94961 67.2845 13.0221 67.3679 49.7151C67.4514 86.4081 55.3016 97.8605 49.2163 99" stroke="white"/>
<path d="M49.2163 1C51.4722 1.94961 55.9919 13.0221 56.0232 49.7151C56.0545 86.4081 51.4983 97.8605 49.2163 99" stroke="white"/>
<path d="M49.2163 1C46.9604 1.94961 42.4407 13.0221 42.4095 49.7151C42.3782 86.4081 46.9343 97.8605 49.2163 99" stroke="white"/>
<path d="M49.2163 1C43.3885 1.94961 31.7128 13.0221 31.6319 49.7151C31.5511 86.4081 43.3212 97.8605 49.2163 99" stroke="white"/>
<path d="M49.2163 1C40.3807 1.94961 22.6787 13.0221 22.5561 49.7151C22.4335 86.4081 40.2785 97.8605 49.2163 99" stroke="white"/>
<path d="M49.2163 1C37.5608 1.94961 14.2092 13.0221 14.0475 49.7151C13.8858 86.4081 37.426 97.8605 49.2163 99" stroke="white"/>
<path d="M49.2163 1C35.1169 1.94961 6.86905 13.0221 6.67345 49.7151C6.47785 86.4081 34.9539 97.8605 49.2163 99" stroke="white"/>
<path d="M98 50C97.0601 35.838 86.1006 7.46492 49.782 7.26845C13.4634 7.07198 2.12791 35.6743 1.00001 50" stroke="white"/>
<path d="M98 50C97.0601 35.838 86.1006 7.46492 49.782 7.26845C13.4634 7.07198 2.12791 35.6743 1.00001 50" stroke="white"/>
<path d="M98 50C97.0601 38.6704 86.1006 15.9719 49.782 15.8148C13.4634 15.6576 2.12791 38.5394 1.00001 50" stroke="white"/>
<path d="M98 50C97.0601 42.0693 86.1006 26.1804 49.782 26.0703C13.4634 25.9603 2.12791 41.9776 1.00001 50" stroke="white"/>
<path d="M98 50C97.0601 45.4682 86.1006 36.3888 49.782 36.3259C13.4634 36.263 2.12791 45.4158 1.00001 50" stroke="white"/>
<path d="M98 50C97.0601 52.4547 86.1006 57.3728 49.782 57.4068C13.4634 57.4409 2.12791 52.4831 1.00001 50" stroke="white"/>
<path d="M98 50C97.0601 56.6089 86.1006 69.8497 49.782 69.9414C13.4634 70.0331 2.12791 56.6853 1.00001 50" stroke="white"/>
<path d="M98 50C97.0601 59.819 86.1006 79.491 49.782 79.6272C13.4634 79.7634 2.12791 59.9325 1.00001 50" stroke="white"/>
<path d="M98 50C97.0601 63.7843 86.1006 91.4008 49.782 91.592C13.4634 91.7833 2.12791 63.9437 1.00001 50" stroke="white"/>
</svg>
