<svg width="114" height="114" viewBox="0 0 114 114" fill="none" xmlns="http://www.w3.org/2000/svg">
<path fill-rule="evenodd" clip-rule="evenodd" d="M57 112C87.3757 112 112 87.3757 112 57C112 26.6243 87.3757 2 57 2C26.6243 2 2 26.6243 2 57C2 87.3757 26.6243 112 57 112ZM57 114C88.4802 114 114 88.4802 114 57C114 25.5198 88.4802 0 57 0C25.5198 0 0 25.5198 0 57C0 88.4802 25.5198 114 57 114Z" fill="black"/>
<path fill-rule="evenodd" clip-rule="evenodd" d="M57 72C68.598 72 78 62.598 78 51C78 39.402 68.598 30 57 30C45.402 30 36 39.402 36 51C36 62.598 45.402 72 57 72ZM57 74C69.7025 74 80 63.7025 80 51C80 38.2975 69.7025 28 57 28C44.2975 28 34 38.2975 34 51C34 63.7025 44.2975 74 57 74Z" fill="black"/>
<path fill-rule="evenodd" clip-rule="evenodd" d="M88.4137 77.573C83.7258 71.5549 77.4679 67 71.5 67V69C76.5315 69 82.2735 72.9451 86.8359 78.802C91.3687 84.6211 94.5 92.0356 94.5 98.5H96.5C96.5 91.4644 93.131 83.6289 88.4137 77.573Z" fill="black"/>
<path fill-rule="evenodd" clip-rule="evenodd" d="M25.0927 76.3149C29.787 70.4153 36.044 66 42 66V68C36.9567 68 31.2136 71.8347 26.6577 77.5601C22.1288 83.2518 19 90.5388 19 97H17C17 89.9612 20.3715 82.2482 25.0927 76.3149Z" fill="black"/>
</svg>
